# xmcd CD database file
#
# Track frame offsets:
#	150
#	17927
#	33230
#	50720
#	65655
#	80695
#	97902
#	113462
#	128322
#	143677
#	158602
#	177060
#	193322
#	209980
#	226630
#	238840
#	256200
#	271320
#	285400
#	298110
#	312127
#	312862
#	314092
#	315095
#	316397
#	317345
#	318305
#	319292
#	320460
#	321582
#	322500
#	323590
#	324832
#	325790
#	326940
#	327855
#	329085
#	330065
#	331360
#	332745
#	333857
#
# Disc length: 4461 seconds
#
# Revision: 0
# Processed by: cddbd v1.5.2PL0 Copyright (c) Steve Scherf et al.
# Submitted via: CDex 1.70beta2
#
DISCID=4a116b29
DTITLE=d - Jones Country Recurrent CHC-1161
DYEAR=0000
DGENRE=Country
TTITLE0=Lari White/Now I Know [single edit]
TTITLE1=Mark Collie/Hard Lovin' Woman
TTITLE2=Tractors/Baby Likes To Rock It
TTITLE3=Faith Hill/Take Me As I Am [album version]
TTITLE4=Mavericks/There Goes My Heart
TTITLE5=Aaron Tippin/I Got It Honest
TTITLE6=Randy Travis/This Is Me
TTITLE7=Martina McBride/Heart Trouble
TTITLE8=Diamond Rio/Night Is Fallin' In My Heart
TTITLE9=John Berry/You And Only You
TTITLE10=Vince Gill/When Love Finds You
TTITLE11=Joe Diffie/Pickup Man
TTITLE12=Tim McGraw/Not A Moment Too Soon
TTITLE13=Doug Stone/Little Houses
TTITLE14=Mark Chesnutt/Goin' Through The Big D
TTITLE15=Reba McEntire/Till You Love Me
TTITLE16=Brooks and Dunn/I'll Never Forgive My Heart
TTITLE17=Patty Loveless/Here I Am
TTITLE18=Sawyer Brown/This Time
TTITLE19=Kathy Mattea/Maybe She's Human
TTITLE20=Production/Track 21
TTITLE21=Production/Track 22
TTITLE22=Production/Track 23
TTITLE23=Production/Track 24
TTITLE24=Production/Track 25
TTITLE25=Production/Track 26
TTITLE26=Production/Track 27
TTITLE27=Production/Track 28
TTITLE28=Production/Track 29
TTITLE29=Production/Track 30
TTITLE30=Production/Track 31
TTITLE31=Production/Track 32
TTITLE32=Production/Track 33
TTITLE33=Production/Track 34
TTITLE34=Production/Track 35
TTITLE35=Production/Track 36
TTITLE36=Production/Track 37
TTITLE37=Production/Track 38
TTITLE38=Production/Track 39
TTITLE39=Production/Track 40
TTITLE40=Production/Track 41
EXTD=YEAR: 0000
EXTT0=
EXTT1=
EXTT2=
EXTT3=
EXTT4=
EXTT5=
EXTT6=
EXTT7=
EXTT8=
EXTT9=
EXTT10=
EXTT11=
EXTT12=
EXTT13=
EXTT14=
EXTT15=
EXTT16=
EXTT17=
EXTT18=
EXTT19=
EXTT20=
EXTT21=
EXTT22=
EXTT23=
EXTT24=
EXTT25=
EXTT26=
EXTT27=
EXTT28=
EXTT29=
EXTT30=
EXTT31=
EXTT32=
EXTT33=
EXTT34=
EXTT35=
EXTT36=
EXTT37=
EXTT38=
EXTT39=
EXTT40=
PLAYORDER=
